<svg width="32" height="10" viewBox="0 0 32 10" fill="none" xmlns="http://www.w3.org/2000/svg">
<path d="M23.0861 4.40332V9.43757H25.8459V6.45431H28.9737C30.2892 6.44499 31.4069 5.59196 31.8301 4.40332H23.0861Z" fill="#1C1C1C"/>
<path d="M22.7181 0.254517C22.8791 2.31017 24.8018 3.93697 27.1476 3.93697C27.1568 3.93697 31.9451 3.93697 31.9451 3.93697C31.9819 3.75052 32.0003 3.55474 32.0003 3.35431C32.0003 1.64826 30.6434 0.268501 28.9645 0.254517H22.7181Z" fill="#1C1C1C"/>
<path d="M18.6333 3.8857C18.6655 3.82976 18.7161 3.79713 18.7805 3.79713C18.8725 3.79713 18.9415 3.87172 18.9461 3.96028V9.39074H21.7059V0.254517H18.9461C18.5965 0.268501 18.2009 0.524874 18.0537 0.846506L15.8597 5.61972C15.8551 5.63836 15.8459 5.65701 15.8367 5.67565C15.8045 5.72227 15.7493 5.7549 15.6849 5.7549C15.5837 5.7549 15.5009 5.67099 15.5009 5.56844V0.254517H12.7411V9.39074H15.5009C15.8459 9.3721 16.2322 9.11572 16.3794 8.79875L18.6333 3.89968C18.6287 3.89502 18.6333 3.89036 18.6333 3.8857Z" fill="#1C1C1C"/>
<path d="M8.33003 4.04433L6.71554 9.39088H4.72848L3.11859 4.03967C3.10479 3.95576 3.03119 3.89051 2.9392 3.89051C2.838 3.89051 2.75981 3.97441 2.75981 4.0723V9.38622H0V0.25H2.36884H3.07259C3.57855 0.25 4.11212 0.650875 4.25931 1.14032L5.60242 5.59189C5.67141 5.81564 5.7772 5.81098 5.8462 5.59189L7.18931 1.14032C7.3365 0.646214 7.87006 0.25 8.37602 0.25H9.07978H11.4486V9.38622H8.6888V4.0723C8.6888 4.0723 8.6888 4.0723 8.6888 4.06764C8.6888 3.96509 8.60601 3.88584 8.50941 3.88584C8.41742 3.89051 8.34383 3.95576 8.33003 4.04433Z" fill="#1C1C1C"/>
</svg>
