<svg width="32" height="12" viewBox="0 0 32 12" fill="none" xmlns="http://www.w3.org/2000/svg">
<path d="M15.8442 0.858283L13.7071 11.1758H11.1208L13.2611 0.858283H15.8442ZM26.7239 7.51999L28.0843 3.64501L28.8685 7.51999H26.7239ZM29.6079 11.1758H32L29.913 0.858283H27.7055C27.7023 0.858283 27.6981 0.858283 27.6949 0.858283C27.2051 0.858283 26.7847 1.1678 26.6076 1.60728L26.6044 1.61499L22.7261 11.1758H25.4404L25.9803 9.63372H29.2974L29.6079 11.1758ZM22.8594 7.80748C22.8701 5.08353 19.2115 4.93373 19.2371 3.7166C19.2457 3.34651 19.586 2.95218 20.3329 2.85195C20.4716 2.83763 20.6316 2.82882 20.7938 2.82882C21.5524 2.82882 22.2715 3.00726 22.9117 3.32668L22.8829 3.31347L23.3364 1.12484C22.6183 0.837355 21.7871 0.66993 20.9186 0.666626H20.9176C18.3612 0.666626 16.5634 2.071 16.5473 4.07899C16.5313 5.56378 17.8309 6.39098 18.8114 6.88664C19.8197 7.39222 20.1579 7.71716 20.1526 8.16766C20.1462 8.86159 19.3502 9.16559 18.6055 9.17771C18.5714 9.17881 18.5297 9.17881 18.4892 9.17881C17.5599 9.17881 16.685 8.93759 15.921 8.51132L15.9499 8.52564L15.4815 10.7859C16.3201 11.1328 17.2921 11.3333 18.3099 11.3333C18.326 11.3333 18.342 11.3333 18.358 11.3333H18.3558C21.0723 11.3333 22.8488 9.94874 22.8584 7.80417L22.8594 7.80748ZM12.1494 0.858283L7.96052 11.1758H5.22699L3.16564 2.94007C3.12617 2.53913 2.88824 2.20428 2.55748 2.03686L2.55108 2.03355C1.81702 1.66126 0.963457 1.35835 0.0704189 1.1678L0 1.15568L0.0618833 0.857181H4.46199C5.06162 0.857181 5.55988 1.30989 5.65271 1.90138L5.65377 1.90799L6.74313 7.87907L9.43398 0.856079L12.1494 0.858283Z" fill="black"/>
</svg>
