<svg width="20" height="20" viewBox="0 0 20 20" fill="none" xmlns="http://www.w3.org/2000/svg">
<path d="M11 6.07944V5.50006H11.5C11.7762 5.50006 12 5.27631 12 5.00006V4.50006C12 4.22381 11.7762 4.00006 11.5 4.00006H8.5C8.22375 4.00006 8 4.22381 8 4.50006V5.00006C8 5.27631 8.22375 5.50006 8.5 5.50006H9V6.07944C5.60906 6.566 3 9.47444 3 13.0001H17C17 9.47444 14.3909 6.566 11 6.07944ZM17.5 14.0001H2.5C2.22375 14.0001 2 14.2238 2 14.5001V15.5001C2 15.7763 2.22375 16.0001 2.5 16.0001H17.5C17.7762 16.0001 18 15.7763 18 15.5001V14.5001C18 14.2238 17.7762 14.0001 17.5 14.0001Z" fill="#fff"/>
</svg>
