<svg width="20" height="20" viewBox="0 0 20 20" fill="none" xmlns="http://www.w3.org/2000/svg">
<path fill-rule="evenodd" clip-rule="evenodd" d="M10.7764 3.54838H11.8087C12.2363 3.54838 12.5829 3.20177 12.5829 2.77419C12.5829 2.34662 12.2363 2 11.8087 2H10.7248C9.89815 2 9.22805 2.67013 9.22805 3.49677V4.16776H7.36276C6.63111 4.16776 6.00664 4.69669 5.88635 5.41845C5.88635 5.41846 5.88635 5.41847 5.88635 5.41849L5.7335 6.33552H4.94419C4.51662 6.33552 4.17 6.68213 4.17 7.10971C4.17 7.53728 4.51662 7.8839 4.94419 7.8839H5.66946C5.6701 7.90218 5.67108 7.92053 5.67239 7.93893C5.67239 7.93893 5.67239 7.93893 5.67239 7.93893L6.29175 16.6099L6.29175 16.6099C6.34773 17.3931 6.99946 18 7.78471 18H12.2198C13.005 18 13.6567 17.3931 13.7127 16.6099L13.7127 16.6099L14.3321 7.93893C14.3334 7.92053 14.3344 7.90218 14.335 7.8839H15.0603C15.4879 7.8839 15.8345 7.53728 15.8345 7.10971C15.8345 6.68213 15.4879 6.33552 15.0603 6.33552H14.271L14.1181 5.41849C14.1181 5.41847 14.1181 5.41846 14.1181 5.41845C13.9978 4.69669 13.3734 4.16776 12.6417 4.16776H10.7764V3.54838ZM12.7012 6.33549L12.598 5.71614H7.40648L7.30325 6.33549H12.7012ZM7.22079 7.8839L7.83278 16.4516H12.1717L12.7837 7.8839H7.22079Z" fill="#fff"/>
</svg>
