<svg width="20" height="20" viewBox="0 0 20 20" fill="none" xmlns="http://www.w3.org/2000/svg">
<path d="M7.52 2.359C7.55047 2.25533 7.61371 2.16432 7.70024 2.0996C7.78678 2.03488 7.89195 1.99994 8 2H12C12.0792 2.00006 12.1572 2.01893 12.2277 2.05504C12.2982 2.09116 12.359 2.1435 12.4053 2.20775C12.4516 2.272 12.482 2.34632 12.4939 2.4246C12.5058 2.50288 12.499 2.58287 12.474 2.658L10.694 8H14.5C14.5936 7.99994 14.6854 8.02616 14.7649 8.0757C14.8443 8.12523 14.9083 8.19608 14.9494 8.28019C14.9906 8.36429 15.0073 8.45825 14.9977 8.55139C14.9881 8.64453 14.9525 8.73309 14.895 8.807L7.895 17.807C7.82329 17.8996 7.72133 17.9642 7.6069 17.9893C7.49248 18.0144 7.37286 17.9986 7.26892 17.9446C7.16498 17.8905 7.08332 17.8017 7.03819 17.6935C6.99307 17.5854 6.98734 17.4649 7.022 17.353L8.823 11.5H5.5C5.42227 11.5 5.34559 11.482 5.27607 11.4472C5.20654 11.4124 5.14608 11.3619 5.09949 11.2997C5.05289 11.2375 5.02145 11.1652 5.00765 11.0887C4.99385 11.0122 4.99808 10.9336 5.02 10.859L7.52 2.359Z" fill="#fff"/>
</svg>
